ffmpeg started on 2025-06-06 at 16:43:26
Report written to "D:\Convert\FFMetrics\reports\psnr_report-6.txt"
Log level: 32
Command line:
ffmpeg -hide_banner -nostdin -i "G:\\\xc0\xed\xe8\xec\xe5\\\xce\xed\xe3\xee\xe8\xed\xe3\xe8\\!_36_\xce\xf1\xe5\xed\xfc_2024\\DreamCast\\\xcf\xeb\xee\xf5\xe0\xff \xef\xee\xe5\xe7\xe4\xea\xe0\\[DC] Acro Trip - 03_Telegram_HEVC.mkv" -i "G:\\\xc0\xed\xe8\xec\xe5\\\xce\xed\xe3\xee\xe8\xed\xe3\xe8\\!_36_\xce\xf1\xe5\xed\xfc_2024\\DreamCast\\\xcf\xeb\xee\xf5\xe0\xff \xef\xee\xe5\xe7\xe4\xea\xe0\\[DC] Acro Trip - 03_Telegram.mp4" -lavfi "[0:v]settb=AVTB,setpts=PTS-STARTPTS,format=pix_fmts=yuv420p10,fps=24000/1001,scale=1920:1080:flags=bicubic[main];[1:v]settb=AVTB,setpts=PTS-STARTPTS,format=pix_fmts=yuv420p,fps=24000/1001,scale=1920:1080:flags=bicubic[ref];[main][ref]psnr=eof_action=endall:stats_file='D\\:/Convert/FFMetrics/logs/psnr_logfile-6.txt'" -f null -
Input #0, matroska,webm, from 'G:\Аниме\Онгоинги\!_36_Осень_2024\DreamCast\Плохая поездка\[DC] Acro Trip - 03_Telegram_HEVC.mkv':
  Metadata:
    COMPATIBLE_BRANDS: isomiso2avc1mp41
    MAJOR_BRAND     : isom
    MINOR_VERSION   : 512
    ENCODER         : Lavf61.7.100
  Duration: 00:23:46.69, start: -0.021000, bitrate: 1308 kb/s
  Stream #0:0: Video: hevc (Main 10), yuv420p10le(tv, bt709, progressive), 1920x1080 [SAR 1:1 DAR 16:9], 23.98 fps, 23.98 tbr, 1k tbn (default)
      Metadata:
        HANDLER_NAME    : VideoHandler
        VENDOR_ID       : [0][0][0][0]
        ENCODER         : Lavc61.19.100 libx265
        BPS             : 1111348
        DURATION        : 00:23:46.591708333
        NUMBER_OF_FRAMES: 34204
        NUMBER_OF_BYTES : 198179925
        _STATISTICS_WRITING_APP: mkvpropedit v66.0.0 ('Josie') 64-bit
        _STATISTICS_WRITING_DATE_UTC: 2025-06-02 11:47:34
        _STATISTICS_TAGS: BPS DURATION NUMBER_OF_FRAMES NUMBER_OF_BYTES
  Stream #0:1: Audio: aac (LC), 48000 Hz, stereo, fltp (default)
      Metadata:
        HANDLER_NAME    : SoundHandler
        VENDOR_ID       : [0][0][0][0]
        ENCODER         : Lavc61.19.100 aac
        BPS             : 193329
        DURATION        : 00:23:46.688000000
        NUMBER_OF_FRAMES: 66877
        NUMBER_OF_BYTES : 34477558
        _STATISTICS_WRITING_APP: mkvpropedit v66.0.0 ('Josie') 64-bit
        _STATISTICS_WRITING_DATE_UTC: 2025-06-02 11:47:34
        _STATISTICS_TAGS: BPS DURATION NUMBER_OF_FRAMES NUMBER_OF_BYTES
Input #1, mov,mp4,m4a,3gp,3g2,mj2, from 'G:\Аниме\Онгоинги\!_36_Осень_2024\DreamCast\Плохая поездка\[DC] Acro Trip - 03_Telegram.mp4':
  Metadata:
    major_brand     : isom
    minor_version   : 512
    compatible_brands: isomiso2avc1mp41
    encoder         : Lavf61.1.100
  Duration: 00:23:46.66, start: 0.000000, bitrate: 3868 kb/s
  Stream #1:0[0x1](und): Video: h264 (High) (avc1 / 0x31637661), yuv420p(tv, bt709, progressive), 1920x1080 [SAR 1:1 DAR 16:9], 3720 kb/s, 23.98 fps, 23.98 tbr, 24k tbn (default)
      Metadata:
        handler_name    : VideoHandler
        vendor_id       : [0][0][0][0]
        encoder         : Lavc61.3.100 h264_qsv
  Stream #1:1[0x2](und): Audio: aac (HE-AACv2) (mp4a / 0x6134706D), 48000 Hz, stereo, fltp, 144 kb/s (default)
      Metadata:
        handler_name    : SoundHandler
        vendor_id       : [0][0][0][0]
Stream mapping:
  Stream #0:0 (hevc) -> settb:default
  Stream #1:0 (h264) -> settb:default
  psnr:default -> Stream #0:0 (wrapped_avframe)
  Stream #0:1 -> #0:1 (aac (native) -> pcm_s16le (native))
Output #0, null, to 'pipe:':
  Metadata:
    COMPATIBLE_BRANDS: isomiso2avc1mp41
    MAJOR_BRAND     : isom
    MINOR_VERSION   : 512
    encoder         : Lavf61.7.100
  Stream #0:0: Video: wrapped_avframe, yuv420p10le(tv, bt709, progressive), 1920x1080 [SAR 1:1 DAR 16:9], q=2-31, 200 kb/s, 23.98 fps, 23.98 tbn
      Metadata:
        encoder         : Lavc61.19.100 wrapped_avframe
  Stream #0:1: Audio: pcm_s16le, 48000 Hz, stereo, s16, 1536 kb/s (default)
      Metadata:
        HANDLER_NAME    : SoundHandler
        VENDOR_ID       : [0][0][0][0]
        _STATISTICS_TAGS: BPS DURATION NUMBER_OF_FRAMES NUMBER_OF_BYTES
        BPS             : 193329
        DURATION        : 00:23:46.688000000
        NUMBER_OF_FRAMES: 66877
        NUMBER_OF_BYTES : 34477558
        _STATISTICS_WRITING_APP: mkvpropedit v66.0.0 ('Josie') 64-bit
        _STATISTICS_WRITING_DATE_UTC: 2025-06-02 11:47:34
        encoder         : Lavc61.19.100 pcm_s16le
frame=  174 fps=0.0 q=-0.0 size=N/A time=00:00:07.25 bitrate=N/A speed=13.9x    frame=  402 fps=390 q=-0.0 size=N/A time=00:00:16.76 bitrate=N/A speed=16.3x    frame=  637 fps=410 q=-0.0 size=N/A time=00:00:26.56 bitrate=N/A speed=17.1x    frame=  857 fps=416 q=-0.0 size=N/A time=00:00:35.74 bitrate=N/A speed=17.4x    frame= 1108 fps=429 q=-0.0 size=N/A time=00:00:46.21 bitrate=N/A speed=17.9x    frame= 1351 fps=437 q=-0.0 size=N/A time=00:00:56.34 bitrate=N/A speed=18.2x    frame= 1586 fps=439 q=-0.0 size=N/A time=00:01:06.14 bitrate=N/A speed=18.3x    frame= 1828 fps=444 q=-0.0 size=N/A time=00:01:16.24 bitrate=N/A speed=18.5x    frame= 2039 fps=439 q=-0.0 size=N/A time=00:01:25.04 bitrate=N/A speed=18.3x    frame= 2216 fps=429 q=-0.0 size=N/A time=00:01:32.42 bitrate=N/A speed=17.9x    frame= 2414 fps=425 q=-0.0 size=N/A time=00:01:40.68 bitrate=N/A speed=17.7x    frame= 2632 fps=425 q=-0.0 size=N/A time=00:01:49.77 bitrate=N/A speed=17.7x    frame= 2847 fps=424 q=-0.0 size=N/A time=00:01:58.74 bitrate=N/A speed=17.7x    frame= 3032 fps=420 q=-0.0 size=N/A time=00:02:06.45 bitrate=N/A speed=17.5x    frame= 3238 fps=419 q=-0.0 size=N/A time=00:02:15.05 bitrate=N/A speed=17.5x    frame= 3423 fps=415 q=-0.0 size=N/A time=00:02:22.76 bitrate=N/A speed=17.3x    frame= 3577 fps=408 q=-0.0 size=N/A time=00:02:29.19 bitrate=N/A speed=  17x    frame= 3730 fps=402 q=-0.0 size=N/A time=00:02:35.57 bitrate=N/A speed=16.8x    frame= 3910 fps=399 q=-0.0 size=N/A time=00:02:43.07 bitrate=N/A speed=16.6x    frame= 4069 fps=395 q=-0.0 size=N/A time=00:02:49.71 bitrate=N/A speed=16.5x    frame= 4250 fps=392 q=-0.0 size=N/A time=00:02:57.26 bitrate=N/A speed=16.4x    frame= 4467 fps=394 q=-0.0 size=N/A time=00:03:06.31 bitrate=N/A speed=16.4x    frame= 4731 fps=399 q=-0.0 size=N/A time=00:03:17.32 bitrate=N/A speed=16.6x    frame= 5003 fps=404 q=-0.0 size=N/A time=00:03:28.66 bitrate=N/A speed=16.9x    frame= 5269 fps=408 q=-0.0 size=N/A time=00:03:39.76 bitrate=N/A speed=  17x    frame= 5491 fps=409 q=-0.0 size=N/A time=00:03:49.02 bitrate=N/A speed=17.1x    frame= 5695 fps=409 q=-0.0 size=N/A time=00:03:57.52 bitrate=N/A speed=17.1x    frame= 5927 fps=410 q=-0.0 size=N/A time=00:04:07.20 bitrate=N/A speed=17.1x    frame= 6138 fps=410 q=-0.0 size=N/A time=00:04:16.00 bitrate=N/A speed=17.1x    frame= 6349 fps=410 q=-0.0 size=N/A time=00:04:24.80 bitrate=N/A speed=17.1x    frame= 6548 fps=410 q=-0.0 size=N/A time=00:04:33.10 bitrate=N/A speed=17.1x    frame= 6742 fps=409 q=-0.0 size=N/A time=00:04:41.19 bitrate=N/A speed=  17x    frame= 6945 fps=408 q=-0.0 size=N/A time=00:04:49.66 bitrate=N/A speed=  17x    frame= 7145 fps=407 q=-0.0 size=N/A time=00:04:58.00 bitrate=N/A speed=  17x    frame= 7347 fps=407 q=-0.0 size=N/A time=00:05:06.43 bitrate=N/A speed=  17x    frame= 7584 fps=408 q=-0.0 size=N/A time=00:05:16.31 bitrate=N/A speed=  17x    frame= 7806 fps=409 q=-0.0 size=N/A time=00:05:25.57 bitrate=N/A speed=17.1x    frame= 8054 fps=411 q=-0.0 size=N/A time=00:05:35.91 bitrate=N/A speed=17.1x    frame= 8303 fps=413 q=-0.0 size=N/A time=00:05:46.30 bitrate=N/A speed=17.2x    frame= 8522 fps=413 q=-0.0 size=N/A time=00:05:55.43 bitrate=N/A speed=17.2x    frame= 8769 fps=415 q=-0.0 size=N/A time=00:06:05.74 bitrate=N/A speed=17.3x    frame= 9026 fps=417 q=-0.0 size=N/A time=00:06:16.45 bitrate=N/A speed=17.4x    frame= 9241 fps=417 q=-0.0 size=N/A time=00:06:25.42 bitrate=N/A speed=17.4x    frame= 9465 fps=417 q=-0.0 size=N/A time=00:06:34.76 bitrate=N/A speed=17.4x    frame= 9687 fps=417 q=-0.0 size=N/A time=00:06:44.02 bitrate=N/A speed=17.4x    frame= 9926 fps=418 q=-0.0 size=N/A time=00:06:53.99 bitrate=N/A speed=17.5x    frame=10193 fps=420 q=-0.0 size=N/A time=00:07:05.13 bitrate=N/A speed=17.5x    frame=10454 fps=422 q=-0.0 size=N/A time=00:07:16.01 bitrate=N/A speed=17.6x    frame=10720 fps=424 q=-0.0 size=N/A time=00:07:27.15 bitrate=N/A speed=17.7x    frame=10979 fps=426 q=-0.0 size=N/A time=00:07:37.91 bitrate=N/A speed=17.8x    frame=11211 fps=426 q=-0.0 size=N/A time=00:07:47.59 bitrate=N/A speed=17.8x    frame=11438 fps=426 q=-0.0 size=N/A time=00:07:57.05 bitrate=N/A speed=17.8x    frame=11695 fps=428 q=-0.0 size=N/A time=00:08:07.77 bitrate=N/A speed=17.8x    frame=11935 fps=429 q=-0.0 size=N/A time=00:08:17.78 bitrate=N/A speed=17.9x    frame=12144 fps=428 q=-0.0 size=N/A time=00:08:26.50 bitrate=N/A speed=17.9x    frame=12404 fps=429 q=-0.0 size=N/A time=00:08:37.35 bitrate=N/A speed=17.9x    frame=12677 fps=431 q=-0.0 size=N/A time=00:08:48.73 bitrate=N/A speed=  18x    frame=12936 fps=432 q=-0.0 size=N/A time=00:08:59.53 bitrate=N/A speed=  18x    frame=13157 fps=432 q=-0.0 size=N/A time=00:09:08.75 bitrate=N/A speed=  18x    frame=13414 fps=434 q=-0.0 size=N/A time=00:09:19.47 bitrate=N/A speed=18.1x    frame=13682 fps=435 q=-0.0 size=N/A time=00:09:30.65 bitrate=N/A speed=18.1x    frame=13931 fps=436 q=-0.0 size=N/A time=00:09:41.03 bitrate=N/A speed=18.2x    frame=14182 fps=436 q=-0.0 size=N/A time=00:09:51.50 bitrate=N/A speed=18.2x    frame=14395 fps=436 q=-0.0 size=N/A time=00:10:00.39 bitrate=N/A speed=18.2x    frame=14635 fps=437 q=-0.0 size=N/A time=00:10:10.40 bitrate=N/A speed=18.2x    frame=14876 fps=437 q=-0.0 size=N/A time=00:10:20.45 bitrate=N/A speed=18.2x    frame=15089 fps=437 q=-0.0 size=N/A time=00:10:29.33 bitrate=N/A speed=18.2x    frame=15328 fps=437 q=-0.0 size=N/A time=00:10:39.30 bitrate=N/A speed=18.2x    frame=15602 fps=438 q=-0.0 size=N/A time=00:10:50.73 bitrate=N/A speed=18.3x    frame=15817 fps=438 q=-0.0 size=N/A time=00:10:59.70 bitrate=N/A speed=18.3x    frame=16055 fps=438 q=-0.0 size=N/A time=00:11:09.62 bitrate=N/A speed=18.3x    frame=16279 fps=438 q=-0.0 size=N/A time=00:11:18.96 bitrate=N/A speed=18.3x    frame=16520 fps=439 q=-0.0 size=N/A time=00:11:29.02 bitrate=N/A speed=18.3x    frame=16768 fps=439 q=-0.0 size=N/A time=00:11:39.40 bitrate=N/A speed=18.3x    frame=17019 fps=440 q=-0.0 size=N/A time=00:11:49.83 bitrate=N/A speed=18.4x    frame=17267 fps=441 q=-0.0 size=N/A time=00:12:00.17 bitrate=N/A speed=18.4x    frame=17509 fps=441 q=-0.0 size=N/A time=00:12:10.27 bitrate=N/A speed=18.4x    frame=17746 fps=441 q=-0.0 size=N/A time=00:12:20.15 bitrate=N/A speed=18.4x    frame=17991 fps=442 q=-0.0 size=N/A time=00:12:30.37 bitrate=N/A speed=18.4x    frame=18238 fps=442 q=-0.0 size=N/A time=00:12:40.67 bitrate=N/A speed=18.4x    frame=18475 fps=442 q=-0.0 size=N/A time=00:12:50.56 bitrate=N/A speed=18.4x    frame=18731 fps=443 q=-0.0 size=N/A time=00:13:01.23 bitrate=N/A speed=18.5x    frame=18984 fps=443 q=-0.0 size=N/A time=00:13:11.79 bitrate=N/A speed=18.5x    frame=19230 fps=444 q=-0.0 size=N/A time=00:13:22.05 bitrate=N/A speed=18.5x    frame=19427 fps=443 q=-0.0 size=N/A time=00:13:30.26 bitrate=N/A speed=18.5x    frame=19667 fps=443 q=-0.0 size=N/A time=00:13:40.27 bitrate=N/A speed=18.5x    frame=19923 fps=444 q=-0.0 size=N/A time=00:13:50.95 bitrate=N/A speed=18.5x    frame=20157 fps=444 q=-0.0 size=N/A time=00:14:00.71 bitrate=N/A speed=18.5x    frame=20421 fps=445 q=-0.0 size=N/A time=00:14:11.72 bitrate=N/A speed=18.6x    frame=20680 fps=446 q=-0.0 size=N/A time=00:14:22.52 bitrate=N/A speed=18.6x    frame=20918 fps=446 q=-0.0 size=N/A time=00:14:32.45 bitrate=N/A speed=18.6x    frame=21170 fps=446 q=-0.0 size=N/A time=00:14:42.96 bitrate=N/A speed=18.6x    frame=21388 fps=446 q=-0.0 size=N/A time=00:14:52.05 bitrate=N/A speed=18.6x    frame=21617 fps=446 q=-0.0 size=N/A time=00:15:01.60 bitrate=N/A speed=18.6x    frame=21844 fps=446 q=-0.0 size=N/A time=00:15:11.07 bitrate=N/A speed=18.6x    frame=22082 fps=446 q=-0.0 size=N/A time=00:15:21.00 bitrate=N/A speed=18.6x    frame=22319 fps=446 q=-0.0 size=N/A time=00:15:30.88 bitrate=N/A speed=18.6x    frame=22553 fps=446 q=-0.0 size=N/A time=00:15:40.64 bitrate=N/A speed=18.6x    frame=22794 fps=446 q=-0.0 size=N/A time=00:15:50.69 bitrate=N/A speed=18.6x    frame=23012 fps=446 q=-0.0 size=N/A time=00:15:59.79 bitrate=N/A speed=18.6x    frame=23252 fps=446 q=-0.0 size=N/A time=00:16:09.80 bitrate=N/A speed=18.6x    frame=23463 fps=446 q=-0.0 size=N/A time=00:16:18.60 bitrate=N/A speed=18.6x    frame=23692 fps=446 q=-0.0 size=N/A time=00:16:28.15 bitrate=N/A speed=18.6x    frame=23938 fps=446 q=-0.0 size=N/A time=00:16:38.41 bitrate=N/A speed=18.6x    frame=24179 fps=446 q=-0.0 size=N/A time=00:16:48.46 bitrate=N/A speed=18.6x    frame=24414 fps=447 q=-0.0 size=N/A time=00:16:58.26 bitrate=N/A speed=18.6x    frame=24683 fps=447 q=-0.0 size=N/A time=00:17:09.48 bitrate=N/A speed=18.7x    frame=24925 fps=447 q=-0.0 size=N/A time=00:17:19.58 bitrate=N/A speed=18.7x    frame=25164 fps=448 q=-0.0 size=N/A time=00:17:29.54 bitrate=N/A speed=18.7x    frame=25370 fps=447 q=-0.0 size=N/A time=00:17:38.14 bitrate=N/A speed=18.6x    frame=25622 fps=447 q=-0.0 size=N/A time=00:17:48.65 bitrate=N/A speed=18.7x    frame=25826 fps=447 q=-0.0 size=N/A time=00:17:57.15 bitrate=N/A speed=18.6x    frame=26063 fps=447 q=-0.0 size=N/A time=00:18:07.04 bitrate=N/A speed=18.6x    frame=26302 fps=447 q=-0.0 size=N/A time=00:18:17.01 bitrate=N/A speed=18.7x    frame=26542 fps=447 q=-0.0 size=N/A time=00:18:27.02 bitrate=N/A speed=18.7x    frame=26770 fps=447 q=-0.0 size=N/A time=00:18:36.53 bitrate=N/A speed=18.7x    frame=27004 fps=447 q=-0.0 size=N/A time=00:18:46.29 bitrate=N/A speed=18.7x    frame=27236 fps=447 q=-0.0 size=N/A time=00:18:55.96 bitrate=N/A speed=18.7x    frame=27459 fps=447 q=-0.0 size=N/A time=00:19:05.26 bitrate=N/A speed=18.7x    frame=27669 fps=447 q=-0.0 size=N/A time=00:19:14.02 bitrate=N/A speed=18.6x    frame=27903 fps=447 q=-0.0 size=N/A time=00:19:23.78 bitrate=N/A speed=18.6x    frame=28141 fps=447 q=-0.0 size=N/A time=00:19:33.71 bitrate=N/A speed=18.6x    frame=28372 fps=447 q=-0.0 size=N/A time=00:19:43.34 bitrate=N/A speed=18.7x    frame=28613 fps=447 q=-0.0 size=N/A time=00:19:53.40 bitrate=N/A speed=18.7x    frame=28839 fps=447 q=-0.0 size=N/A time=00:20:02.82 bitrate=N/A speed=18.7x    frame=29078 fps=447 q=-0.0 size=N/A time=00:20:12.79 bitrate=N/A speed=18.7x    frame=29314 fps=447 q=-0.0 size=N/A time=00:20:22.63 bitrate=N/A speed=18.7x    frame=29533 fps=447 q=-0.0 size=N/A time=00:20:31.77 bitrate=N/A speed=18.7x    frame=29743 fps=447 q=-0.0 size=N/A time=00:20:40.53 bitrate=N/A speed=18.6x    frame=29954 fps=447 q=-0.0 size=N/A time=00:20:49.33 bitrate=N/A speed=18.6x    frame=30197 fps=447 q=-0.0 size=N/A time=00:20:59.46 bitrate=N/A speed=18.6x    frame=30396 fps=446 q=-0.0 size=N/A time=00:21:07.76 bitrate=N/A speed=18.6x    frame=30619 fps=446 q=-0.0 size=N/A time=00:21:17.06 bitrate=N/A speed=18.6x    frame=30884 fps=447 q=-0.0 size=N/A time=00:21:28.12 bitrate=N/A speed=18.6x    frame=31121 fps=447 q=-0.0 size=N/A time=00:21:38.00 bitrate=N/A speed=18.6x    frame=31353 fps=447 q=-0.0 size=N/A time=00:21:47.68 bitrate=N/A speed=18.6x    frame=31552 fps=446 q=-0.0 size=N/A time=00:21:55.98 bitrate=N/A speed=18.6x    frame=31803 fps=447 q=-0.0 size=N/A time=00:22:06.45 bitrate=N/A speed=18.6x    frame=32026 fps=446 q=-0.0 size=N/A time=00:22:15.75 bitrate=N/A speed=18.6x    frame=32239 fps=446 q=-0.0 size=N/A time=00:22:24.63 bitrate=N/A speed=18.6x    frame=32461 fps=446 q=-0.0 size=N/A time=00:22:33.89 bitrate=N/A speed=18.6x    frame=32672 fps=446 q=-0.0 size=N/A time=00:22:42.69 bitrate=N/A speed=18.6x    frame=32916 fps=446 q=-0.0 size=N/A time=00:22:52.87 bitrate=N/A speed=18.6x    frame=33135 fps=446 q=-0.0 size=N/A time=00:23:02.00 bitrate=N/A speed=18.6x    frame=33378 fps=446 q=-0.0 size=N/A time=00:23:12.14 bitrate=N/A speed=18.6x    frame=33604 fps=446 q=-0.0 size=N/A time=00:23:21.56 bitrate=N/A speed=18.6x    frame=33799 fps=446 q=-0.0 size=N/A time=00:23:29.69 bitrate=N/A speed=18.6x    frame=34003 fps=445 q=-0.0 size=N/A time=00:23:38.20 bitrate=N/A speed=18.6x    [Parsed_psnr_10 @ 000001efd2a3b6c0] PSNR y:48.212657 u:49.740447 v:49.597642 average:48.645871 min:42.024230 max:inf
[out#0/null @ 000001efd2b95e00] video:14697KiB audio:267508KiB subtitle:0KiB other streams:0KiB global headers:0KiB muxing overhead: unknown
frame=34204 fps=446 q=-0.0 Lsize=N/A time=00:23:46.59 bitrate=N/A speed=18.6x    
